<svg xmlns="http://www.w3.org/2000/svg" viewBox="0 0 512 512">
<rect x="16" y="16" width="480" height="480" rx="96" fill="#F6F3EC" stroke="#16233F" stroke-width="7"/>
<circle cx="133" cy="50" r="14" fill="#16233F"/>
<circle cx="379" cy="50" r="14" fill="#16233F"/>
<rect x="64" y="64" width="384" height="82" rx="21" fill="#E8963C"/>
<rect x="64" y="174" width="384" height="274" rx="14" fill="#FFFFFF" stroke="#16233F" stroke-width="5"/>
<line x1="191" y1="174" x2="191" y2="448" stroke="#16233F" stroke-width="3"/>
<line x1="321" y1="174" x2="321" y2="448" stroke="#16233F" stroke-width="3"/>
<line x1="64" y1="266" x2="448" y2="266" stroke="#16233F" stroke-width="3"/>
<line x1="64" y1="355" x2="448" y2="355" stroke="#16233F" stroke-width="3"/>
<rect x="321" y="177" width="127" height="86" rx="7" fill="#E8963C"/>
<rect x="366" y="191" width="14" height="34" rx="5" fill="#FFFFFF"/>
<rect x="352" y="222" width="34" height="21" rx="5" fill="#FFFFFF"/>
<rect x="335" y="229" width="21" height="10" rx="3" fill="#FFFFFF"/>
<path d="M383 229 L421 256 L410 266 L373 239 Z" fill="#FFFFFF"/>
<circle cx="421" cy="256" r="5" fill="#FFFFFF"/>
</svg>
